# xmcd CD database file
#
# Track frame offsets:
#	150
#	14441
#	28655
#	42621
#	57385
#	71157
#	84390
#	96391
#	111231
#	123629
#	136690
#	149867
#	162801
#	176189
#	189568
#	204409
#	218263
#	232259
#	245952
#	258269
#	270546
#	282609
#	293257
#	306089
#	320418
#
# Disc length: 4456 seconds
#
# Revision: 0
# Processed by: cddbd v1.5.2PL0 Copyright (c) Steve Scherf et al.
# Submitted via: CDex 1.82
#
DISCID=88116619
DTITLE=Washboard Sam - The Washboard Sam Collection 1935-1953
DYEAR=2014
DGENRE=Blues
TTITLE0=Lover's Lane Blues (1941)
TTITLE1=Let Me Play Your Vendor (1941)
TTITLE2=Gonna Hit The Highway (1941)
TTITLE3=I've Been Treated Wrong (1941)
TTITLE4=Down South Woman Blues (1941)
TTITLE5=Good Old Cabbage Greens (1942)
TTITLE6=River Hip Mama (1942)
TTITLE7=How Can You Love Me (1942)
TTITLE8=Rockin' My Blues Away (1942)
TTITLE9=Do That Shake Dance (1942)
TTITLE10=Don't Have To Sing The Blues (1942)
TTITLE11=I Get The Blues At Bedtime (1942)
TTITLE12=Red River Dam Blues (1942)
TTITLE13=Ain't That A Shame (1942)
TTITLE14=You Can't Have None Of That (1947)
TTITLE15=I Just Can't Help It (1947)
TTITLE16=Soap And Water Blues (1947)
TTITLE17=You Can't Make The Grade (1947)
TTITLE18=Maybe You'll Love Me (1950)
TTITLE19=Motherless Child (1950)
TTITLE20=Diggin' My Potatoes (1953)
TTITLE21=Bright Eyes (1953)
TTITLE22=Little City Woman (1953)
TTITLE23=Shirt Tail (1953)
TTITLE24=All By Myself (1953)
EXTD=YEAR: 2014
EXTT0=
EXTT1=
EXTT2=
EXTT3=
EXTT4=
EXTT5=
EXTT6=
EXTT7=
EXTT8=
EXTT9=
EXTT10=
EXTT11=
EXTT12=
EXTT13=
EXTT14=
EXTT15=
EXTT16=
EXTT17=
EXTT18=
EXTT19=
EXTT20=
EXTT21=
EXTT22=
EXTT23=
EXTT24=
PLAYORDER=
